<?xml version="1.0" encoding="UTF-8" standalone="no"?>
<svg
   width="800px"
   height="800px"
   viewBox="0 0 32 32"
   version="1.1"
   id="svg1"
   sodipodi:docname="yandex.svg"
   inkscape:version="1.4.2 (f4327f4, 2025-05-13)"
   xmlns:inkscape="http://www.inkscape.org/namespaces/inkscape"
   xmlns:sodipodi="http://sodipodi.sourceforge.net/DTD/sodipodi-0.dtd"
   xmlns="http://www.w3.org/2000/svg"
   xmlns:svg="http://www.w3.org/2000/svg">
  <defs
     id="defs1" />
  <sodipodi:namedview
     id="namedview1"
     pagecolor="#ffffff"
     bordercolor="#000000"
     borderopacity="0.25"
     inkscape:showpageshadow="2"
     inkscape:pageopacity="0.0"
     inkscape:pagecheckerboard="0"
     inkscape:deskcolor="#d1d1d1"
     inkscape:zoom="0.35664698"
     inkscape:cx="-75.705113"
     inkscape:cy="326.65354"
     inkscape:window-width="1920"
     inkscape:window-height="1009"
     inkscape:window-x="-8"
     inkscape:window-y="-8"
     inkscape:window-maximized="1"
     inkscape:current-layer="svg1" />
  <title
     id="title1">file_type_yandex</title>
  <circle
     style="fill:#fc3f1d;fill-rule:evenodd;stroke-width:0.0591161;stroke-linecap:round;fill-opacity:1"
     id="path2"
     cx="16.024662"
     cy="16.02466"
     r="15.912505" />
  <path
     d="m 20.35601,4.7478152 h -3.154941 c -3.154942,0 -6.365093,2.3662057 -6.365093,7.5876328 a 6.5701642,6.5701642 0 0 0 3.265363,6.041711 L 10.1971,25.357466 a 0.98591904,0.98591904 0 0 0 0,1.001694 0.95436958,0.95436958 0 0 0 0.788735,0.473241 h 1.96395 a 0.97803156,0.97803156 0 0 0 0.946483,-0.591551 l 3.620295,-7.098618 h 0.26817 v 6.798897 a 0.89915813,0.89915813 0 0 0 0.946481,0.891272 h 1.719444 a 0.88338345,0.88338345 0 0 0 0.914932,-0.83606 V 5.7100722 A 0.93859481,0.93859481 0 0 0 20.450658,4.7478152 Z M 17.847831,16.010953 h -0.465354 c -1.814091,0 -2.886771,-1.474934 -2.886771,-3.943675 0,-3.0760674 1.364512,-4.1724094 2.634376,-4.1724094 h 0.741411 z"
     style="fill:#ffffff;stroke-width:0.788735"
     id="path1" />
</svg>
